<svg width="60" height="48" viewBox="0 0 60 48" fill="none" xmlns="http://www.w3.org/2000/svg">
<path d="M26.9874 13.8607C27.0925 14.5014 27.1498 15.161 27.1498 15.7452C27.1498 16.499 27.0925 17.1586 26.9874 17.7993L29.1074 19.665C29.7759 20.2586 30.0528 21.1161 29.6995 22.0207C29.4798 22.4353 29.2411 23.01 28.9737 23.4812L28.6777 23.99C28.3052 24.4611 28.0761 24.9134 27.7418 25.3563C27.1975 26.0724 26.2426 26.308 25.3831 26.0253L22.6806 25.149C21.6588 25.9876 20.4938 26.6566 19.2237 27.1277L18.5648 29.8603C18.4597 30.7366 17.7722 31.4339 16.8745 31.5469C16.2347 31.6223 15.5853 31.66 14.9264 31.66C14.2675 31.66 13.6181 31.6223 12.9783 31.5469C12.0807 31.4339 11.3072 30.7366 11.2021 29.8603L10.5432 27.1277C9.35906 26.6566 8.19402 25.9876 7.16745 25.149L4.47259 26.0253C3.61409 26.308 2.65723 26.0724 2.11291 25.3563C1.77486 24.9134 1.45972 24.4517 1.16942 23.9806L0.881023 23.4812C0.614592 23.01 0.372226 22.5201 0.155644 22.0207C-0.198069 21.1161 0.0729454 20.2586 0.74733 19.665L2.86541 17.7993C2.75845 17.1586 2.61712 16.499 2.61712 15.7452C2.61712 15.161 2.75845 14.5014 2.86541 13.8607L0.74733 11.995C0.0729454 11.3166 -0.198069 10.4591 0.155644 9.63934C0.372226 9.05514 0.614592 8.64903 0.880068 8.17507L1.17037 7.68038C1.45972 7.20454 1.77486 6.74471 2.11291 6.30279C2.65723 5.59138 3.61409 5.35488 4.47259 5.63379L7.16745 6.51009C8.19402 5.67713 9.35906 5.00624 10.5432 4.53699L11.2021 1.79784C11.3072 0.923417 12.0807 0.223316 12.9783 0.115992C13.6181 0.0393866 14.2675 0 14.9264 0C15.5853 0 16.2347 0.0393865 16.8745 0.115898C17.7722 0.223316 18.4597 0.923417 18.5648 1.79784L19.2237 4.53699C20.4938 5.00624 21.6588 5.67713 22.6806 6.51009L25.3831 5.63379C26.2426 5.35488 27.1975 5.59138 27.7418 6.30279C28.0761 6.74283 28.3052 7.20077 28.6777 7.67378L28.9737 8.18166C29.2411 8.65374 29.4798 9.13994 29.6995 9.63934C30.0528 10.4591 29.7759 11.3166 29.1074 11.995L26.9874 13.8607ZM14.9264 11.2223C12.3958 11.2223 10.3427 13.333 10.3427 15.7452C10.3427 18.327 12.3958 20.2681 14.9264 20.2681C17.457 20.2681 19.5102 18.327 19.5102 15.7452C19.5102 13.333 17.457 11.2223 14.9264 11.2223ZM45.9527 44.3146C45.3033 44.4182 44.6349 44.4748 43.9569 44.4748C43.2788 44.4748 42.6104 44.4182 41.961 44.3146L40.0702 46.4064C39.3827 47.066 38.5137 47.3393 37.6828 46.9906C37.1767 46.7739 36.6801 46.5383 36.2027 46.2745L35.687 45.9824C35.2095 45.6149 34.7512 45.3888 34.3023 45.059C33.5766 44.5219 33.3378 43.5796 33.6243 42.7316L34.5124 40.065C33.6625 39.0568 32.9845 37.9072 32.507 36.654L29.7377 36.0038C28.8496 35.9002 28.1429 35.2218 28.0283 34.336C27.9519 33.7047 27.9137 33.064 27.9137 32.4138C27.9137 31.7637 27.9519 31.1229 28.0283 30.4916C28.1429 29.6059 28.8496 28.8426 29.7377 28.739L32.507 28.0888C32.9845 26.9204 33.6625 25.7709 34.5124 24.7627L33.6243 22.0961C33.3378 21.248 33.5766 20.3058 34.3023 19.7687C34.7512 19.4389 35.2191 19.0431 35.6966 18.8358L36.2027 18.5531C36.6801 18.2893 37.0908 18.0537 37.6828 17.837C38.5137 17.4884 39.3827 17.7616 40.0702 18.4212L41.961 20.5131C42.6104 20.4094 43.2788 20.3529 43.9569 20.3529C44.6349 20.3529 45.3033 20.4094 45.9527 20.5131L47.8435 18.4212C48.4451 17.7616 49.3141 17.4884 50.2309 17.837C50.737 18.0537 51.2336 18.2893 51.711 18.5531L52.2172 18.8358C52.6946 19.0431 53.1626 19.4389 53.6114 19.7687C54.3372 20.3058 54.5759 21.248 54.2894 22.0961L53.4013 24.7627C54.2512 25.7709 54.9292 26.9204 55.4067 28.0888L58.1761 28.739C59.0642 28.8426 59.7708 29.6059 59.8854 30.4916C59.9618 31.1229 60 31.7637 60 32.4138C60 33.064 59.9618 33.7047 59.8854 34.336C59.7708 35.2218 59.0642 35.9002 58.1761 36.0038L55.4067 36.654C54.9292 37.9072 54.2512 39.0568 53.4013 40.065L54.2894 42.7316C54.5759 43.5796 54.3372 44.5219 53.6114 45.059C53.1626 45.3888 52.7042 45.6149 52.2267 45.9824L51.711 46.2745C51.2336 46.5383 50.6511 46.7739 50.2309 46.9906C49.3141 47.3393 48.4451 47.066 47.8435 46.4064L45.9527 44.3146ZM48.5406 32.4138C48.5406 29.9168 46.4875 27.891 43.9569 27.891C41.4262 27.891 39.3731 29.9168 39.3731 32.4138C39.3731 34.9108 41.4262 36.9367 43.9569 36.9367C46.4875 36.9367 48.5406 34.9108 48.5406 32.4138Z" fill="white"/>
</svg>
