<svg width="58" height="50" viewBox="0 0 58 50" fill="none" xmlns="http://www.w3.org/2000/svg">
<path d="M4.46429 0C5.94308 0 7.14286 1.19978 7.14286 2.67857V47.3214C7.14286 48.8058 5.94308 50 4.46429 50H2.67857C1.19978 50 0 48.8058 0 47.3214V2.67857C0 1.19978 1.19978 0 2.67857 0H4.46429ZM14.2857 1.78571V48.2143C14.2857 49.1964 13.4821 50 12.5 50C11.5179 50 10.7143 49.1964 10.7143 48.2143V1.78571C10.7143 0.799107 11.5179 0 12.5 0C13.4821 0 14.2857 0.799107 14.2857 1.78571ZM22.3214 0C23.8058 0 25 1.19978 25 2.67857V47.3214C25 48.8058 23.8058 50 22.3214 50H20.5357C19.0513 50 17.8571 48.8058 17.8571 47.3214V2.67857C17.8571 1.19978 19.0513 0 20.5357 0H22.3214ZM33.0357 0C34.5201 0 35.7143 1.19978 35.7143 2.67857V47.3214C35.7143 48.8058 34.5201 50 33.0357 50H31.25C29.7656 50 28.5714 48.8058 28.5714 47.3214V2.67857C28.5714 1.19978 29.7656 0 31.25 0H33.0357ZM50 2.67857C50 1.19978 51.1942 0 52.6786 0H54.4643C55.9487 0 57.1429 1.19978 57.1429 2.67857V47.3214C57.1429 48.8058 55.9487 50 54.4643 50H52.6786C51.1942 50 50 48.8058 50 47.3214V2.67857ZM42.8571 1.78571C42.8571 0.799107 43.6607 0 44.6429 0C45.625 0 46.4286 0.799107 46.4286 1.78571V48.2143C46.4286 49.1964 45.625 50 44.6429 50C43.6607 50 42.8571 49.1964 42.8571 48.2143V1.78571Z" fill="white"/>
</svg>
