<svg width="50" height="50" viewBox="0 0 50 50" fill="none" xmlns="http://www.w3.org/2000/svg">
<path d="M28.125 0C29.8535 0 31.25 1.39941 31.25 3.125V9.375C31.25 11.1035 29.8535 12.5 28.125 12.5H20.3125V15.625H41.416C44.5898 15.625 47.2168 17.8809 47.6758 20.9375L49.8926 35.5566C49.9609 36.0156 50 36.4844 50 36.9531V43.75C50 47.1973 47.1973 50 43.75 50H6.25C2.79785 50 0 47.1973 0 43.75V36.9531C0 36.4844 0.0353711 36.0156 0.105762 35.5566L2.32031 20.9375C2.7832 17.8809 5.40918 15.625 8.49902 15.625H13.9746V12.5H6.16211C4.52441 12.5 3.03711 11.1035 3.03711 9.375V3.125C3.03711 1.39941 4.52441 0 6.16211 0H28.125ZM9.375 4.6875C8.51172 4.6875 7.8125 5.38672 7.8125 6.25C7.8125 7.11328 8.51172 7.8125 9.375 7.8125H25C25.8594 7.8125 26.5625 7.11328 26.5625 6.25C26.5625 5.38672 25.8594 4.6875 25 4.6875H9.375ZM7.8125 43.75H42.1875C43.0469 43.75 43.75 43.0469 43.75 42.1875C43.75 41.3281 43.0469 40.625 42.1875 40.625H7.8125C6.94922 40.625 6.25 41.3281 6.25 42.1875C6.25 43.0469 6.94922 43.75 7.8125 43.75ZM10.9375 21.0938C9.64355 21.0938 8.59375 22.1387 8.59375 23.4375C8.59375 24.7363 9.64355 25.7812 10.9375 25.7812C12.2363 25.7812 13.2812 24.7363 13.2812 23.4375C13.2812 22.1387 12.2363 21.0938 10.9375 21.0938ZM20.3125 25.7812C21.6113 25.7812 22.6562 24.7363 22.6562 23.4375C22.6562 22.1387 21.6113 21.0938 20.3125 21.0938C19.0137 21.0938 17.9688 22.1387 17.9688 23.4375C17.9688 24.7363 19.0137 25.7812 20.3125 25.7812ZM15.625 28.9062C14.3262 28.9062 13.2812 29.9512 13.2812 31.25C13.2812 32.5488 14.3262 33.5938 15.625 33.5938C16.9238 33.5938 17.9688 32.5488 17.9688 31.25C17.9688 29.9512 16.9238 28.9062 15.625 28.9062ZM29.6875 25.7812C30.9863 25.7812 32.0312 24.7363 32.0312 23.4375C32.0312 22.1387 30.9863 21.0938 29.6875 21.0938C28.3887 21.0938 27.3438 22.1387 27.3438 23.4375C27.3438 24.7363 28.3887 25.7812 29.6875 25.7812ZM25 28.9062C23.7012 28.9062 22.6562 29.9512 22.6562 31.25C22.6562 32.5488 23.7012 33.5938 25 33.5938C26.2988 33.5938 27.3438 32.5488 27.3438 31.25C27.3438 29.9512 26.2988 28.9062 25 28.9062ZM39.0625 25.7812C40.3613 25.7812 41.4062 24.7363 41.4062 23.4375C41.4062 22.1387 40.3613 21.0938 39.0625 21.0938C37.7637 21.0938 36.7188 22.1387 36.7188 23.4375C36.7188 24.7363 37.7637 25.7812 39.0625 25.7812ZM34.375 28.9062C33.0762 28.9062 32.0312 29.9512 32.0312 31.25C32.0312 32.5488 33.0762 33.5938 34.375 33.5938C35.6738 33.5938 36.7188 32.5488 36.7188 31.25C36.7188 29.9512 35.6738 28.9062 34.375 28.9062Z" fill="white"/>
<path d="M28.125 0C29.8535 0 31.25 1.39941 31.25 3.125V9.375C31.25 11.1035 29.8535 12.5 28.125 12.5H20.3125V15.625H41.416C44.5898 15.625 47.2168 17.8809 47.6758 20.9375L49.8926 35.5566C49.9609 36.0156 50 36.4844 50 36.9531V43.75C50 47.1973 47.1973 50 43.75 50H6.25C2.79785 50 0 47.1973 0 43.75V36.9531C0 36.4844 0.0353711 36.0156 0.105762 35.5566L2.32031 20.9375C2.7832 17.8809 5.40918 15.625 8.49902 15.625H13.9746V12.5H6.16211C4.52441 12.5 3.03711 11.1035 3.03711 9.375V3.125C3.03711 1.39941 4.52441 0 6.16211 0H28.125ZM9.375 4.6875C8.51172 4.6875 7.8125 5.38672 7.8125 6.25C7.8125 7.11328 8.51172 7.8125 9.375 7.8125H25C25.8594 7.8125 26.5625 7.11328 26.5625 6.25C26.5625 5.38672 25.8594 4.6875 25 4.6875H9.375ZM7.8125 43.75H42.1875C43.0469 43.75 43.75 43.0469 43.75 42.1875C43.75 41.3281 43.0469 40.625 42.1875 40.625H7.8125C6.94922 40.625 6.25 41.3281 6.25 42.1875C6.25 43.0469 6.94922 43.75 7.8125 43.75ZM10.9375 21.0938C9.64355 21.0938 8.59375 22.1387 8.59375 23.4375C8.59375 24.7363 9.64355 25.7812 10.9375 25.7812C12.2363 25.7812 13.2812 24.7363 13.2812 23.4375C13.2812 22.1387 12.2363 21.0938 10.9375 21.0938ZM20.3125 25.7812C21.6113 25.7812 22.6562 24.7363 22.6562 23.4375C22.6562 22.1387 21.6113 21.0938 20.3125 21.0938C19.0137 21.0938 17.9688 22.1387 17.9688 23.4375C17.9688 24.7363 19.0137 25.7812 20.3125 25.7812ZM15.625 28.9062C14.3262 28.9062 13.2812 29.9512 13.2812 31.25C13.2812 32.5488 14.3262 33.5938 15.625 33.5938C16.9238 33.5938 17.9688 32.5488 17.9688 31.25C17.9688 29.9512 16.9238 28.9062 15.625 28.9062ZM29.6875 25.7812C30.9863 25.7812 32.0312 24.7363 32.0312 23.4375C32.0312 22.1387 30.9863 21.0938 29.6875 21.0938C28.3887 21.0938 27.3438 22.1387 27.3438 23.4375C27.3438 24.7363 28.3887 25.7812 29.6875 25.7812ZM25 28.9062C23.7012 28.9062 22.6562 29.9512 22.6562 31.25C22.6562 32.5488 23.7012 33.5938 25 33.5938C26.2988 33.5938 27.3438 32.5488 27.3438 31.25C27.3438 29.9512 26.2988 28.9062 25 28.9062ZM39.0625 25.7812C40.3613 25.7812 41.4062 24.7363 41.4062 23.4375C41.4062 22.1387 40.3613 21.0938 39.0625 21.0938C37.7637 21.0938 36.7188 22.1387 36.7188 23.4375C36.7188 24.7363 37.7637 25.7812 39.0625 25.7812ZM34.375 28.9062C33.0762 28.9062 32.0312 29.9512 32.0312 31.25C32.0312 32.5488 33.0762 33.5938 34.375 33.5938C35.6738 33.5938 36.7188 32.5488 36.7188 31.25C36.7188 29.9512 35.6738 28.9062 34.375 28.9062Z" fill="white"/>
</svg>
