<svg width="60" height="53" viewBox="0 0 60 53" fill="none" xmlns="http://www.w3.org/2000/svg">
<path d="M7.5 43.125C7.5 44.1562 8.33906 45 9.375 45H56.25C58.3242 45 60 46.6758 60 48.75C60 50.8242 58.3242 52.5 56.25 52.5H9.375C4.19766 52.5 0 48.3047 0 43.125V3.75C0 1.6793 1.6793 0 3.75 0C5.8207 0 7.5 1.6793 7.5 3.75V43.125ZM40.1484 28.8984C38.6836 30.3633 36.3164 30.3633 34.8516 28.8984L28.125 22.1836L17.6484 32.6484C16.1836 34.1133 13.8164 34.1133 12.3516 32.6484C10.8844 31.1836 10.8844 28.8164 12.3516 27.3516L25.4766 14.2266C26.9414 12.7617 29.3086 12.7617 30.7734 14.2266L37.5 20.9414L49.8516 8.60156C51.3164 7.13438 53.6836 7.13438 55.1484 8.60156C56.6133 10.0664 56.6133 12.4336 55.1484 13.8984L40.1484 28.8984Z" fill="white"/>
</svg>
