<svg width="60" height="48" viewBox="0 0 60 48" fill="none" xmlns="http://www.w3.org/2000/svg">
<path d="M48 15C52.1419 15 55.5 11.6419 55.5 7.5C55.5 3.35812 52.1437 0 48 0C43.8581 0 40.5 3.35812 40.5 7.5C40.5 11.6419 43.8563 15 48 15ZM12 15C16.1419 15 19.5 11.6419 19.5 7.5C19.5 3.35812 16.1437 0 12 0C7.85812 0 4.5 3.35812 4.5 7.5C4.5 11.6419 7.85812 15 12 15ZM29.9906 30C35.3728 30 39.6562 25.635 39.6562 20.25C39.6562 14.865 35.2931 10.5 29.9906 10.5C24.6084 10.5 20.325 14.865 20.325 20.25C20.2406 25.6313 24.6094 30 29.9906 30ZM34.5 37.5C34.5 35.9353 34.8186 34.4569 35.308 33.06C35.0906 33.0469 34.8937 33 34.6781 33H25.3219C17.9625 33 12 38.5969 12 45.4969C12 46.8844 13.1906 48 14.6625 48H39.6094C36.5156 45.525 34.5 41.7656 34.5 37.5ZM17.2406 20.25C17.2406 19.7392 17.3327 19.2534 17.3915 18.7584C16.3687 18.1969 15.2437 18 14.0531 18H8.2575C3.6975 18 0 21.9187 0 26.7469C0 27.7125 0.739406 28.5 1.65188 28.5H20.355C18.4406 26.2687 17.2406 23.4094 17.2406 20.25ZM51.7406 18H45.9431C44.7431 18 43.6106 18.2847 42.5813 18.7725C42.6375 19.2656 42.7312 19.7437 42.7312 20.25C42.7312 22.2628 42.2039 24.1294 41.3578 25.8131C43.3312 24.6938 45.5719 24 48 24C51.9825 24 55.5253 25.7569 57.9937 28.5H58.3459C59.2594 28.5 60 27.7125 60 26.7469C60 21.9187 56.3063 18 51.7406 18ZM57.9469 34.3781C57.4758 32.8772 56.6728 31.5075 55.6266 30.3741C55.4696 30.1996 55.2078 30.156 54.9985 30.2782L53.2013 31.316C52.4423 30.6703 51.5701 30.1647 50.6279 29.8328V27.6656C50.6279 27.4299 50.4534 27.2207 50.2266 27.1769C48.6741 26.8279 47.0859 26.8367 45.6028 27.1769C45.4594 27.3 45.2906 27.5156 45.2906 27.6656V29.7506C44.3484 30.0822 43.4756 30.588 42.7172 31.2337L40.9116 30.1959C40.711 30.0738 40.4492 30.1174 40.2837 30.2918C39.2365 31.4262 38.434 32.7959 37.9718 34.2959C37.9021 34.5314 37.998 34.7756 38.1987 34.889L39.9959 35.9362C39.8216 36.913 39.8216 37.9246 39.9959 38.9024L38.1987 39.9496C37.9893 40.0629 37.9021 40.3073 37.9718 40.5428C38.4342 42.0438 39.2365 43.4041 40.2837 44.5469C40.4493 44.7216 40.7025 44.7652 40.9116 44.643L42.7172 43.6052C43.476 44.2508 44.3484 44.7564 45.2906 45.0883V47.1733C45.2906 47.409 45.4566 47.6182 45.6833 47.6618C47.2451 48.0109 48.8239 48.0021 50.307 47.6618C50.5339 47.6183 50.7083 47.409 50.7083 47.1733V45.0883C51.6505 44.7569 52.5233 44.2509 53.2818 43.6052L55.079 44.643C55.2797 44.7652 55.5501 44.7216 55.707 44.5469C56.7542 43.4125 57.5567 42.0438 58.0273 40.5428C58.0971 40.3073 58.0013 40.0629 57.7918 39.9496L55.9946 38.9024C56.1777 37.9255 56.1777 36.913 55.9946 35.9362L57.7918 34.889C58.0031 34.8563 58.0969 34.6125 57.9469 34.3781ZM48 40.5C46.3434 40.5 45 39.1566 45 37.5C45 35.8434 46.3434 34.5 48 34.5C49.6566 34.5 51 35.8434 51 37.5C51 39.1594 49.6594 40.5 48 40.5Z" fill="white"/>
</svg>
